HIERARCHY
ROOT Hips
{
	OFFSET 0.000000 0.000000 0.000000
	CHANNELS 6 Xposition Yposition Zposition Zrotation Yrotation Xrotation 
	JOINT LHipJoint
	{
		OFFSET 0.000000 0.000000 0.000000
		CHANNELS 3 Zrotation Yrotation Xrotation
		JOINT LeftUpLeg
		{
			OFFSET 1.363060 -1.794630 0.839290
			CHANNELS 3 Zrotation Yrotation Xrotation
			JOINT LeftLeg
			{
				OFFSET 2.448110 -6.726130 0.000000
				CHANNELS 3 Zrotation Yrotation Xrotation
				JOINT LeftFoot
				{
					OFFSET 2.562200 -7.039590 0.000000
					CHANNELS 3 Zrotation Yrotation Xrotation
					JOINT LeftToeBase
					{
						OFFSET 0.157640 -0.433110 2.322550
						CHANNELS 3 Zrotation Yrotation Xrotation
						End Site
						{
							OFFSET 0.000000 0.000000 0.000000
						}
					}
				}
			}
		}
	}
	JOINT RHipJoint
	{
		OFFSET 0.000000 0.000000 0.000000
		CHANNELS 3 Zrotation Yrotation Xrotation
		JOINT RightUpLeg
		{
			OFFSET -1.305520 -1.794630 0.839290
			CHANNELS 3 Zrotation Yrotation Xrotation
			JOINT RightLeg
			{
				OFFSET -2.542530 -6.985550 0.000000
				CHANNELS 3 Zrotation Yrotation Xrotation
				JOINT RightFoot
				{
					OFFSET -2.568260 -7.056230 0.000000
					CHANNELS 3 Zrotation Yrotation Xrotation
					JOINT RightToeBase
					{
						OFFSET -0.164730 -0.452590 2.363150
						CHANNELS 3 Zrotation Yrotation Xrotation
						End Site
						{
							OFFSET 0.000000 0.000000 0.000000
						}
					}
				}
			}
		}
	}
}
MOTION
Frames: 30
Frame Time: 0.008333
9.930664 22.173113 1.701167 49.259940 -80.443693 -9.238400 -11.115101 -0.529039 2.358624 -17.109596 -5.122079 -73.531914 6.276565 5.993398 109.860224 1.459671 4.560155 8.414568 0.845000 0.000000 -59.812100 12.584000 1.927881 0.496974 0.915496 -13.093130 -70.293656 -6.528909 -8.081338 107.603024 -0.563727 -0.275363 -4.504410 0.034700 -0.000000 -74.531700
9.817964 22.222145 1.685475 49.647606 -80.169485 -8.092910 -10.895559 -1.066614 2.461537 -18.100439 -6.810493 -79.035897 7.479328 6.472486 115.279771 1.408860 4.782419 6.138360 0.813700 -0.000001 -58.116700 12.478710 2.548217 0.688834 1.156797 -13.152611 -76.218227 -7.867125 -8.701069 113.198643 -0.467735 0.058886 -6.508280 0.023500 0.000000 -73.316400
9.703698 22.254858 1.668447 50.231253 -79.913717 -7.022921 -10.593060 -1.597378 2.585738 -18.970343 -8.771874 -84.699917 8.720872 6.909034 120.097060 1.369647 5.066085 4.012723 0.787100 -0.000000 -56.406300 12.313039 3.178115 0.985642 1.326445 -13.044955 -82.391091 -9.260772 -9.244860 118.246650 -0.374156 0.430704 -8.321820 0.002900 -0.000000 -72.526600
9.587098 22.272754 1.649654 51.018401 -79.675901 -6.065079 -10.209586 -2.093799 2.702995 -19.667882 -10.974201 -90.470361 9.953118 7.304904 124.264074 1.347826 5.423033 2.082090 0.763199 0.000000 -54.764801 12.089889 3.793502 1.378634 1.393658 -12.777779 -88.781039 -10.657778 -9.703698 122.713812 -0.291439 0.795098 -9.933505 -0.024600 0.000000 -72.162200
9.467258 22.277297 1.628786 51.987847 -79.454250 -5.235424 -9.756777 -2.525996 2.783364 -20.140785 -13.360239 -96.280206 11.126457 7.668234 127.751724 1.346196 5.850722 0.374689 0.738300 -0.000000 -53.181900 11.816447 4.367828 1.849721 1.336658 -12.368088 -95.338019 -12.002187 -10.076359 126.576061 -0.226526 1.109806 -11.341696 -0.053500 0.000000 -72.154200
9.343286 22.270671 1.605792 53.084834 -79.246189 -4.523672 -9.254908 -2.866889 2.800271 -20.342109 -15.847763 -102.053844 12.194216 8.011624 130.546365 1.364663 6.334319 -1.089988 0.710499 0.000000 -51.639500 11.502839 4.876206 2.370934 1.148838 -11.841374 -101.991079 -13.240654 -10.369780 129.821399 -0.184400 1.337506 -12.551434 -0.076500 -0.000000 -72.378300
9.214015 22.254032 1.580493 54.251872 -79.052413 -3.912518 -8.729686 -3.095634 2.735701 -20.241639 -18.331730 -107.717510 13.117135 8.349622 132.649487 1.400982 6.852184 -2.289236 0.682600 0.000000 -50.316200 11.161347 5.300004 2.911269 0.836427 -11.218205 -108.658662 -14.328018 -10.597148 132.450647 -0.169208 1.440404 -13.579275 -0.085600 -0.000000 -72.684799
9.078631 22.229594 1.553341 55.395397 -78.875924 -3.350078 -8.209081 -3.204353 2.584596 -19.827612 -20.701526 -113.205042 13.869348 8.696237 134.086403 1.450048 7.373063 -3.232685 0.658000 -0.000001 -49.129100 10.803900 5.627263 3.437545 0.417631 -10.521900 -115.247621 -15.229528 -10.776915 134.469836 -0.182293 1.395911 -14.434697 -0.074200 -0.000000 -72.915000
8.936891 22.198452 1.524233 56.541734 -78.741618 -2.880789 -7.717800 -3.195083 2.352126 -19.125212 -22.837047 -118.472797 14.434334 9.065292 134.885351 1.506889 7.871466 -3.929113 0.643200 0.000000 -48.189799 10.442177 5.853116 3.932582 -0.106031 -9.734927 -121.686788 -15.922928 -10.926618 135.890994 -0.225742 1.177290 -15.129163 -0.036900 0.000000 -72.942801
8.787697 22.161864 1.495901 57.249084 -78.601753 -2.100138 -7.275185 -3.081857 2.074766 -18.119052 -24.717778 -123.450222 14.802532 9.452330 135.087541 1.567595 8.324448 -4.403012 0.643300 -0.000000 -47.565200 10.087119 5.983735 4.341736 -0.636556 -8.966439 -127.837935 -16.399646 -11.078031 136.735506 -0.295660 0.807154 -15.688653 0.025200 0.000000 -72.735600
8.629669 22.119642 1.465123 57.994099 -78.545231 -1.493745 -6.897848 -2.885202 1.758174 -16.957711 -26.168063 -128.081609 14.981906 9.873047 134.754440 1.622199 8.684247 -4.730225 0.652200 -0.000000 -47.213400 9.751023 6.021503 4.690051 -1.247254 -8.113219 -133.636606 -16.660855 -11.235527 137.028943 -0.391153 0.289142 -16.129551 0.109800 0.000000 -72.273600
8.464063 22.072369 1.433622 58.680399 -78.553380 -0.944728 -6.591323 -2.623098 1.448094 -15.683695 -27.231775 -132.353589 14.975957 10.321563 133.924907 1.670227 8.950700 -4.955948 0.668800 -0.000000 -47.056699 9.444654 5.974629 4.972565 -1.910858 -7.226760 -139.034334 -16.711542 -11.418030 136.783415 -0.506356 -0.331223 -16.463637 0.208599 0.000000 -71.645000
8.290940 22.019878 1.402106 59.248910 -78.630187 -0.374969 -6.359685 -2.313375 1.186066 -14.344064 -27.927893 -136.249337 14.790621 10.788944 132.634446 1.709464 9.113996 -5.114707 0.690400 -0.000000 -47.213800 9.179379 5.846951 5.196750 -2.587445 -6.313946 -143.977670 -16.560275 -11.638072 136.018554 -0.634528 -0.992858 -16.736520 0.311700 -0.000000 -70.715900
8.111605 21.962997 1.371342 59.737139 -78.775768 0.171660 -6.203414 -1.980125 0.991765 -13.011997 -28.286682 -139.704661 14.431856 11.259088 130.921720 1.737394 9.161505 -5.259314 0.708700 -0.000001 -47.431900 8.962950 5.651716 5.363093 -3.247344 -5.411751 -148.382030 -16.217285 -11.899211 134.749091 -0.762388 -1.609200 -16.941988 0.404699 0.000000 -69.740900
7.927192 21.902521 1.341308 60.234829 -78.990765 0.601548 -6.119301 -1.643647 0.876361 -11.761713 -28.345458 -142.663078 13.908149 11.712436 128.820487 1.751862 9.087969 -5.404760 0.720900 -0.000000 -47.618500 8.799910 5.403752 5.480110 -3.859488 -4.533265 -152.183525 -15.695048 -12.195721 132.999460 -0.874998 -2.092909 -17.080702 0.473800 0.000000 -68.803800
7.738264 21.838949 1.311176 60.871388 -79.272465 0.793528 -6.102268 -1.316440 0.847737 -10.653318 -28.148064 -145.088513 13.228944 12.128634 126.347165 1.751005 8.899018 -5.508374 0.734000 -0.000000 -48.012200 8.693100 5.116471 5.565827 -4.402211 -3.670476 -155.348621 -15.007614 -12.514355 130.800254 -0.957343 -2.367548 -17.154315 0.508799 0.000000 -67.824800
7.546851 21.773445 1.281762 61.663212 -79.616101 0.713429 -6.141638 -1.018024 0.895758 -9.716504 -27.739804 -146.938938 12.411644 12.480294 123.533941 1.734158 8.608884 -5.530838 0.754100 0.000000 -48.383600 8.636549 4.810325 5.619888 -4.831550 -2.833860 -157.831590 -14.172903 -12.836106 128.183381 -0.992094 -2.374708 -17.091999 0.498800 0.000000 -67.128201
7.353973 21.707007 1.252980 62.658406 -80.016800 0.311018 -6.226684 -0.756996 1.011025 -8.967330 -27.158331 -148.201343 11.476561 12.745747 120.394960 1.700665 8.240765 -5.386309 0.794100 -0.000000 -48.847201 8.623991 4.500523 5.650642 -5.124030 -2.010405 -159.623826 -13.212534 -13.139298 125.187675 -0.966091 -2.086411 -16.837015 0.441100 -0.000000 -66.790300
7.160665 21.640335 1.225317 63.835504 -80.472244 -0.396888 -6.345660 -0.540425 1.179083 -8.397038 -26.431746 -148.877339 10.448664 12.906117 116.941690 1.650871 7.824965 -4.979510 0.866700 0.000000 -49.512000 8.646228 4.200597 5.659188 -5.254228 -1.189861 -160.722568 -12.149934 -13.403041 121.847356 -0.870067 -1.504532 -16.315463 0.341500 0.000000 -66.946999
6.967666 21.573939 1.199426 65.138524 -80.978633 -1.358009 -6.487909 -0.370716 1.385343 -7.986751 -25.584244 -148.980869 9.355572 12.949617 113.183199 1.585599 7.389439 -4.234205 0.978500 -0.000000 -50.357000 8.694048 3.919911 5.645765 -5.204552 -0.366842 -161.142814 -11.012030 -13.609195 118.199132 -0.700449 -0.657246 -15.460482 0.217000 -0.000000 -67.669400
6.775445 21.508007 1.174792 66.590432 -81.523237 -2.595110 -6.644898 -0.241603 1.614224 -7.734239 -24.643928 -148.526024 8.221318 12.873917 109.111026 1.505752 6.958027 -3.078467 1.133500 0.000000 -51.500900 8.760483 3.666003 5.614839 -4.986435 0.449886 -160.910169 -9.823770 -13.740226 114.269257 -0.461172 0.403505 -14.226700 0.096101 0.000000 -68.946900
6.584536 21.442995 1.151604 68.134230 -82.095325 -4.057929 -6.808973 -0.148579 1.848820 -7.631454 -23.633390 -147.523973 7.067465 12.680830 104.715807 1.413112 6.546135 -1.485504 1.327500 -0.000000 -52.974900 8.837609 3.443896 5.563855 -4.601926 1.245635 -160.045818 -8.609158 -13.783682 110.079916 -0.162584 1.614704 -12.592699 0.014501 -0.000000 -70.717500
6.394397 21.377263 1.131388 69.553964 -82.694072 -5.519245 -6.977727 -0.087151 2.083933 -7.631555 -22.571461 -146.031438 5.915779 12.380069 99.995739 1.310098 6.161420 0.533938 1.551500 0.000001 -54.577699 8.920131 3.244926 5.491728 -4.037925 2.015630 -158.595700 -7.389623 -13.738512 105.649983 0.178824 2.908133 -10.568432 0.008900 -0.000000 -72.804800
6.204942 21.310408 1.113508 70.811816 -83.301541 -6.945501 -7.149179 -0.047386 2.307744 -7.746927 -21.485887 -144.062182 4.777179 11.984944 94.931907 1.197807 5.801455 2.937144 1.792400 0.000000 -56.252700 9.003346 3.066869 5.399946 -3.317475 2.733930 -156.595541 -6.181124 -13.600316 100.988184 0.541839 4.211825 -8.192829 0.109600 0.000000 -75.030600
6.015674 21.241152 1.098262 71.733822 -83.907584 -8.160697 -7.325106 -0.023444 2.516364 -7.968505 -20.395652 -141.648510 3.659798 11.509277 89.510288 1.077006 5.460680 5.653742 2.035799 0.000000 -57.905400 9.082378 2.899721 5.288269 -2.448708 3.385950 -154.088032 -4.995646 -13.372288 96.102874 0.903222 5.455449 -5.528888 0.331600 -0.000000 -77.209200
5.825602 21.167986 1.084949 72.376039 -84.521796 -9.233773 -7.505584 -0.008859 2.699450 -8.325942 -19.287151 -138.808115 2.569322 10.969565 83.739588 0.946109 5.124334 8.572949 2.262401 -0.000000 -59.431200 9.150323 2.739479 5.155715 -1.455470 3.978400 -151.097670 -3.842765 -13.055852 91.007826 1.240696 6.573818 -2.657332 0.670000 0.000000 -79.181400
5.633194 21.088529 1.073617 72.776274 -85.188186 -10.218271 -7.691968 -0.004238 2.852690 -8.825560 -18.100189 -135.591861 1.511999 10.383525 77.665334 0.801742 4.769010 11.566448 2.448700 0.000001 -60.754200 9.198882 2.573919 5.004049 -0.344318 4.563201 -147.651404 -2.729952 -12.656364 85.727878 1.534363 7.502512 0.332598 1.095600 0.000000 -80.829600
5.438974 21.002943 1.064285 72.462995 -85.811606 -10.630130 -7.883373 -0.006858 2.975123 -9.455781 -16.936599 -131.989114 0.475652 9.740846 71.234044 0.645438 4.403188 14.587374 2.592400 0.000000 -61.877100 9.228886 2.401963 4.826202 0.887515 5.028641 -143.810121 -1.661174 -12.183143 80.279980 1.770254 8.191860 3.369990 1.561600 0.000000 -82.101700
5.240774 20.907775 1.056960 71.222549 -86.380183 -10.278780 -8.075564 -0.023978 3.063454 -10.225148 -15.779595 -128.027506 -0.531563 9.041256 64.524426 0.475570 4.006506 17.536980 2.673800 -0.000001 -62.759100 9.232023 2.222002 4.619315 2.239735 5.354713 -139.628531 -0.650316 -11.647601 74.754614 1.939726 8.611943 6.370849 2.009900 0.000001 -82.984401
5.035407 20.798710 1.050985 68.721016 -86.802420 -8.824124 -8.262208 -0.051677 3.129838 -11.137247 -14.708856 -123.736911 -1.502152 8.274378 57.606172 0.294171 3.576040 20.374611 2.685600 -0.000000 -63.459001 9.211327 2.040037 4.389541 3.687531 5.429294 -135.234599 0.285213 -11.071986 69.289727 2.042116 8.766955 9.258566 2.388500 0.000001 -83.481300
